# xmcd
#
# Track frame offsets:
#	150
#	16583
#	28641
#	36585
#	49875
#	61619
#	77034
#	88179
#	94246
#	111861
#	119707
#	133684
#	143347
#
# Disc length: 2095 seconds
#
# Revision: 0
# Processed by: cddbd v1.5.2PL0 Copyright (c) Steve Scherf et al.
# Submitted via: dBpowerAMP V4.0
#
DISCID=aa082d0d
DTITLE=Andre Williams and the Sadies - Night and Day
DYEAR=2012
DGENRE=Alt. Country
TTITLE0=I Gotta Get Shortly Out of Jail
TTITLE1=America (You Say "A Change is Gonna Come")
TTITLE2=The Seventy Year Old
TTITLE3=Your Old Lady
TTITLE4=Bored
TTITLE5=Mississippi and Joliet
TTITLE6=I Thank God
TTITLE7=Don't Take It
TTITLE8=One-Eyed Jack
TTITLE9=Hey Baby!
TTITLE10=I'll Do Most Anything for You
TTITLE11=That's My Desire
TTITLE12=Me and My Dog
EXTD=
EXTT0=
EXTT1=
EXTT2=
EXTT3=
EXTT4=
EXTT5=
EXTT6=
EXTT7=
EXTT8=
EXTT9=
EXTT10=
EXTT11=
EXTT12=
PLAYORDER=
